<svg xmlns="http://www.w3.org/2000/svg" xmlns:xlink="http://www.w3.org/1999/xlink" version="1.1" x="0px" y="0px" viewBox="0 0 50 62.5" style="enable-background:new 0 0 50 50;" xml:space="preserve"><path d="M10.8,32.4h2.9v2.9h-2.9V32.4z M10.8,17.6h2.9v-2.9h-2.9V17.6z M16.7,35.3h-2.9v2.9h2.9C16.7,38.2,16.7,35.3,16.7,35.3z   M10.8,17.7H7.9v14.6h2.9V17.7z M16.7,11.8h-2.9v2.9h2.9C16.7,14.7,16.7,11.8,16.7,11.8z M34.4,35.3h2.9v-2.9h-2.9V35.3z M31.4,14.7  h2.9v-2.9h-2.9V14.7z M31.4,38.2h2.9v-2.9h-2.9V38.2z M40.3,17.7v2.9h-3v-5.9h-2.9v5.9h-3v-2.9h-2.9v3h2.9v2.8h3v2.9h2.9v-2.9h3  v-2.8h2.9v-3H40.3z M31.4,11.7V8.8H16.7v2.9C16.7,11.7,31.4,11.7,31.4,11.7z M16.7,38.3v2.9h14.7v-2.9H16.7z" fill="#d87651"/></svg>